:FULLY-SPECIFIED
:FORCE-ALL-JOINTS-BE-3DOF
:DEGREES
204
root -2.89834 16.3096 -36.1129 3.76584 0.645362 -2.89059
lfemur -23.7622 6.63825 -8.25698
ltibia 48.3744 0 0
lfoot -23.6558 0.405284 0
ltoes -9.70658 0 0
rfemur -23.7259 -7.42826 14.5899
rtibia 50.4615 0 0
rfoot -27.4757 2.00868 0
rtoes -8.22348 0 0
lowerback 7.29867 1.95558 -1.70131
upperback -3.76066 2.54002 1.29704
thorax -8.20356 1.37479 1.96016
lowerneck -3.37332 -3.90939 -6.54763
upperneck 6.82095 -5.27845 6.02982
head 3.21346 -2.59936 2.96227
lclavicle -1.27412e-14 2.14475e-16 0
lhumerus -26.5934 -1.87507 88.7726
lradius 24.3099 0 0
lwrist -31.382 0 0
lhand -28.2468 30.0946 0
lfingers 7.12502 0 0
lthumb -1.62429 60.0681 0
rclavicle -1.27412e-14 2.14475e-16 0
rhumerus -32.2898 1.96379 -79.8805
rradius 30.3864 0 0
rwrist 3.15062 0 0
rhand -20.0872 -26.8183 0
rfingers 7.12502 0 0
rthumb 6.25561 -56.706 0
205
root -2.89986 16.3073 -36.1118 3.76709 0.656803 -2.90701
lfemur -23.831 6.68194 -8.2151
ltibia 48.5238 0 0
lfoot -23.7333 0.401574 0
ltoes -9.76026 0 0
rfemur -23.7851 -7.49646 14.6226
rtibia 50.6055 0 0
rfoot -27.5601 2.03709 0
rtoes -8.25793 0 0
lowerback 7.29516 1.95468 -1.69864
upperback -3.7544 2.53935 1.30022
thorax -8.19474 1.3743 1.96232
lowerneck -3.40342 -3.91451 -6.54399
upperneck 6.86153 -5.2852 6.0275
head 3.23336 -2.60226 2.96025
lclavicle -1.28916e-14 3.62517e-16 0
lhumerus -26.5717 -1.88322 88.7833
lradius 24.3142 0 0
lwrist -31.3777 0 0
lhand -28.2385 30.1045 0
lfingers 7.12502 0 0
lthumb -1.61634 60.0781 0
rclavicle -1.28916e-14 3.62517e-16 0
rhumerus -32.2558 1.98355 -79.9091
rradius 30.4202 0 0
rwrist 3.13748 0 0
rhand -20.0849 -26.82 0
rfingers 7.12502 0 0
rthumb 6.25787 -56.7076 0
206
root -2.90138 16.305 -36.1106 3.76868 0.66911 -2.9246
lfemur -23.9054 6.72898 -8.17025
ltibia 48.6848 0 0
lfoot -23.8168 0.397708 0
ltoes -9.81773 0 0
rfemur -23.8493 -7.56976 14.6577
rtibia 50.7605 0 0
rfoot -27.6509 2.06737 0
rtoes -8.29546 0 0
lowerback 7.29131 1.95374 -1.69565
upperback -3.74773 2.53866 1.30361
thorax -8.18527 1.37379 1.96455
lowerneck -3.43602 -3.91994 -6.54011
upperneck 6.9053 -5.29236 6.02499
head 3.25484 -2.60532 2.95808
lclavicle -1.30647e-14 4.96962e-16 0
lhumerus -26.5489 -1.89002 88.794
lradius 24.3179 0 0
lwrist -31.374 0 0
lhand -28.2296 30.1145 0
lfingers 7.12502 0 0
lthumb -1.6077 60.0882 0
rclavicle -1.30647e-14 4.96962e-16 0
rhumerus -32.2196 2.00376 -79.9386
rradius 30.4557 0 0
rwrist 3.12415 0 0
rhand -20.0827 -26.8213 0
rfingers 7.12502 0 0
rthumb 6.25995 -56.7088 0
207
root -2.90104 16.303 -36.1104 3.76487 0.668673 -2.92495
lfemur -23.9162 6.73622 -8.16611
ltibia 48.7191 0 0
lfoot -23.8349 0.400119 0
ltoes -9.83167 0 0
rfemur -23.8607 -7.58379 14.6583
rtibia 50.7952 0 0
rfoot -27.6702 2.07576 0
rtoes -8.29911 0 0
lowerback 7.29567 1.95353 -1.69607
upperback -3.74493 2.53835 1.30484
thorax -8.18486 1.37366 1.96604
lowerneck -3.46582 -3.89375 -6.51149
upperneck 6.93196 -5.25631 5.99638
head 3.26596 -2.58733 2.94471
lclavicle -1.28283e-14 5.61656e-16 0
lhumerus -26.5483 -1.896 88.7981
lradius 24.3216 0 0
lwrist -31.364 0 0
lhand -28.2287 30.1202 0
lfingers 7.12502 0 0
lthumb -1.6068 60.0939 0
rclavicle -1.28283e-14 5.61656e-16 0
rhumerus -32.2126 2.00533 -79.9375
rradius 30.459 0 0
rwrist 3.12707 0 0
rhand -20.078 -26.8175 0
rfingers 7.12502 0 0
rthumb 6.26451 -56.7048 0
208
root -2.9007 16.3011 -36.1102 3.7616 0.668286 -2.92524
lfemur -23.9254 6.74238 -8.16261
ltibia 48.7484 0 0
lfoot -23.8504 0.402192 0
ltoes -9.84357 0 0
rfemur -23.8703 -7.59575 14.6588
rtibia 50.8249 0 0
rfoot -27.6866 2.08293 0
rtoes -8.30221 0 0
lowerback 7.29941 1.95334 -1.69643
upperback -3.74254 2.53808 1.3059
thorax -8.18451 1.37355 1.96732
lowerneck -3.49136 -3.87128 -6.48694
upperneck 6.9548 -5.22537 5.97184
head 3.27547 -2.57189 2.93324
lclavicle -1.26255e-14 6.16739e-16 0
lhumerus -26.5479 -1.9011 88.8016
lradius 24.3247 0 0
lwrist -31.3554 0 0
lhand -28.2279 30.1251 0
lfingers 7.12502 0 0
lthumb -1.60603 60.0988 0
rclavicle -1.26255e-14 6.16739e-16 0
rhumerus -32.2067 2.00665 -79.9364
rradius 30.4617 0 0
rwrist 3.1296 0 0
rhand -20.0739 -26.8142 0
rfingers 7.12502 0 0
rthumb 6.26841 -56.7014 0
209
root -2.90037 16.2991 -36.1099 3.75881 0.66793 -2.92545
lfemur -23.9331 6.74754 -8.15972
ltibia 48.7731 0 0
lfoot -23.8634 0.40397 0
ltoes -9.85358 0 0
rfemur -23.8785 -7.60579 14.6591
rtibia 50.8498 0 0
rfoot -27.7004 2.08897 0
rtoes -8.30479 0 0
lowerback 7.30261 1.95319 -1.69674
upperback -3.74052 2.53786 1.30679
thorax -8.18424 1.37346 1.96841
lowerneck -3.51307 -3.85212 -6.46603
upperneck 6.97417 -5.19898 5.95093
head 3.28354 -2.55873 2.92347
lclavicle -1.24526e-14 6.628e-16 0
lhumerus -26.5475 -1.90539 88.8045
lradius 24.3273 0 0
lwrist -31.3482 0 0
lhand -28.2272 30.1292 0
lfingers 7.12502 0 0
lthumb -1.60539 60.1029 0
rclavicle -1.24526e-14 6.628e-16 0
rhumerus -32.2017 2.00771 -79.9355
rradius 30.464 0 0
rwrist 3.13181 0 0
rhand -20.0705 -26.8114 0
rfingers 7.12502 0 0
rthumb 6.27173 -56.6985 0
210
root -2.90003 16.2971 -36.1097 3.75646 0.667588 -2.92556
lfemur -23.9394 6.75175 -8.15743
ltibia 48.7935 0 0
lfoot -23.8742 0.405494 0
ltoes -9.86186 0 0
rfemur -23.8852 -7.61405 14.6593
rtibia 50.8704 0 0
rfoot -27.7118 2.09397 0
rtoes -8.30687 0 0
lowerback 7.30533 1.95306 -1.69701
upperback -3.73883 2.53767 1.30753
thorax -8.18404 1.37338 1.96931
lowerneck -3.53136 -3.83585 -6.44832
upperneck 6.99045 -5.17659 5.93322
head 3.29031 -2.54756 2.91519
lclavicle -1.23059e-14 7.00426e-16 0
lhumerus -26.5473 -1.90892 88.8069
lradius 24.3295 0 0
lwrist -31.342 0 0
lhand -28.2267 30.1326 0
lfingers 7.12502 0 0
lthumb -1.60488 60.1063 0
rclavicle -1.23059e-14 7.00426e-16 0
rhumerus -32.1976 2.00849 -79.9345
rradius 30.4657 0 0
rwrist 3.13375 0 0
rhand -20.0676 -26.8089 0
rfingers 7.12502 0 0
rthumb 6.27452 -56.696 0
211
root -2.89969 16.2952 -36.1095 3.75447 0.66724 -2.92557
lfemur -23.9444 6.7551 -8.15572
ltibia 48.8099 0 0
lfoot -23.8829 0.406808 0
ltoes -9.86858 0 0
rfemur -23.8905 -7.62068 14.6593
rtibia 50.8871 0 0
rfoot -27.721 2.09804 0
rtoes -8.30847 0 0
lowerback 7.30764 1.95296 -1.69724
upperback -3.73743 2.53752 1.30814
thorax -8.18392 1.37332 1.97006
lowerneck -3.54668 -3.82208 -6.43338
upperneck 7.004 -5.15763 5.91826
head 3.29593 -2.5381 2.90821
lclavicle -1.21817e-14 7.30207e-16 0
lhumerus -26.5473 -1.91177 88.8089
lradius 24.3313 0 0
lwrist -31.3369 0 0
lhand -28.2263 30.1354 0
lfingers 7.12502 0 0
lthumb -1.60448 60.1092 0
rclavicle -1.21817e-14 7.30207e-16 0
rhumerus -32.1943 2.009 -79.9335
rradius 30.467 0 0
rwrist 3.1355 0 0
rhand -20.0652 -26.8069 0
rfingers 7.12502 0 0
rthumb 6.27685 -56.6938 0
212
root -2.89935 16.2932 -36.1093 3.7528 0.666868 -2.92546
lfemur -23.9482 6.75763 -8.15457
ltibia 48.8228 0 0
lfoot -23.8897 0.407953 0
ltoes -9.87387 0 0
rfemur -23.8947 -7.62582 14.659
rtibia 50.9003 0 0
rfoot -27.7283 2.10127 0
rtoes -8.30962 0 0
lowerback 7.30962 1.95289 -1.69745
upperback -3.7363 2.53739 1.30863
thorax -8.18388 1.37328 1.97068
lowerneck -3.55945 -3.81038 -6.42076
upperneck 7.0152 -5.14153 5.90562
head 3.30056 -2.53008 2.90232
lclavicle -1.20764e-14 7.5273e-16 0
lhumerus -26.5475 -1.91399 88.8104
lradius 24.3328 0 0
lwrist -31.3327 0 0
lhand -28.226 30.1377 0
lfingers 7.12502 0 0
lthumb -1.60419 60.1114 0
rclavicle -1.20764e-14 7.5273e-16 0
rhumerus -32.1918 2.00923 -79.9324
rradius 30.4678 0 0
rwrist 3.13713 0 0
rhand -20.0632 -26.805 0
rfingers 7.12502 0 0
rthumb 6.27878 -56.692 0
213
root -2.89901 16.2913 -36.109 3.75139 0.666454 -2.92522
lfemur -23.9509 6.75942 -8.15396
ltibia 48.8326 0 0
lfoot -23.8949 0.408972 0
ltoes -9.87791 0 0
rfemur -23.8978 -7.62962 14.6585
rtibia 50.9103 0 0
rfoot -27.7337 2.10377 0
rtoes -8.31035 0 0
lowerback 7.31132 1.95283 -1.69764
upperback -3.73539 2.5373 1.30902
thorax -8.18392 1.37324 1.97117
lowerneck -3.5701 -3.80037 -6.41004
upperneck 7.02441 -5.12774 5.89486
head 3.30434 -2.52321 2.89731
lclavicle -1.19863e-14 7.68584e-16 0
lhumerus -26.5478 -1.91565 88.8116
lradius 24.3339 0 0
lwrist -31.3292 0 0
lhand -28.2258 30.1395 0
lfingers 7.12502 0 0
lthumb -1.60401 60.1132 0
rclavicle -1.19863e-14 7.68584e-16 0
rhumerus -32.1899 2.00917 -79.931
rradius 30.4681 0 0
rwrist 3.13869 0 0
rhand -20.0615 -26.8034 0
rfingers 7.12502 0 0
rthumb 6.28038 -56.6903 0
214
root -2.89867 16.2893 -36.1088 3.75017 0.665979 -2.92484
lfemur -23.9526 6.76054 -8.15388
ltibia 48.8396 0 0
lfoot -23.8986 0.409905 0
ltoes -9.88084 0 0
rfemur -23.8999 -7.63223 14.6577
rtibia 50.9176 0 0
rfoot -27.7376 2.10561 0
rtoes -8.31068 0 0
lowerback 7.31284 1.95279 -1.69783
upperback -3.73468 2.53723 1.30932
thorax -8.18405 1.37322 1.97157
lowerneck -3.57906 -3.79161 -6.40078
upperneck 7.03201 -5.1157 5.88555
head 3.30743 -2.51721 2.89299
lclavicle -1.19078e-14 7.78357e-16 0
lhumerus -26.5484 -1.91681 88.8124
lradius 24.3347 0 0
lwrist -31.3263 0 0
lhand -28.2257 30.1408 0
lfingers 7.12502 0 0
lthumb -1.60392 60.1146 0
rclavicle -1.19078e-14 7.78357e-16 0
rhumerus -32.1887 2.00881 -79.9295
rradius 30.4679 0 0
rwrist 3.14027 0 0
rhand -20.0602 -26.802 0
rfingers 7.12502 0 0
rthumb 6.28171 -56.6888 0
215
root -2.89834 16.2873 -36.1086 3.7491 0.665424 -2.9243
lfemur -23.9534 6.76104 -8.1543
ltibia 48.8442 0 0
lfoot -23.9011 0.410796 0
ltoes -9.88282 0 0
rfemur -23.9012 -7.63378 14.6566
rtibia 50.9224 0 0
rfoot -27.7401 2.10691 0
rtoes -8.31064 0 0
lowerback 7.31422 1.95277 -1.69801
upperback -3.73411 2.53718 1.30956
thorax -8.18427 1.3732 1.9719
lowerneck -3.58676 -3.78372 -6.39254
upperneck 7.03836 -5.10483 5.87724
head 3.30997 -2.51181 2.88915
lclavicle -1.1837e-14 7.82638e-16 0
lhumerus -26.5493 -1.91753 88.8129
lradius 24.3353 0 0
lwrist -31.3239 0 0
lhand -28.2257 30.1419 0
lfingers 7.12502 0 0
lthumb -1.60392 60.1156 0
rclavicle -1.1837e-14 7.82638e-16 0
rhumerus -32.188 2.00815 -79.9276
rradius 30.4673 0 0
rwrist 3.14191 0 0
rhand -20.059 -26.8006 0
rfingers 7.12502 0 0
rthumb 6.28283 -56.6874 0
